<svg width="91" height="38" viewBox="0 0 91 38" fill="none" xmlns="http://www.w3.org/2000/svg">
<path d="M24.1839 5.112C24.2159 5.288 24.2399 5.456 24.2559 5.616C24.2879 5.776 24.2879 5.952 24.2559 6.144C24.2559 6.32 24.2479 6.488 24.2319 6.648C24.2319 6.792 24.2159 6.952 24.1839 7.128C24.1039 7.736 23.9119 8.28 23.6079 8.76C23.3199 9.24 22.8799 9.648 22.2879 9.984C21.7439 10.304 21.0879 10.552 20.3199 10.728C19.5519 10.904 18.6879 10.992 17.7279 10.992H16.0959C15.7919 10.992 15.4879 10.992 15.1839 10.992C14.8959 10.992 14.5999 10.976 14.2959 10.944C13.9759 10.928 13.6639 10.896 13.3599 10.848C13.0719 10.8 12.7839 10.744 12.4959 10.68C12.2239 10.632 11.9599 10.568 11.7039 10.488C11.4479 10.392 11.1999 10.28 10.9599 10.152C10.5439 9.88 10.1839 9.6 9.8799 9.312C9.5919 9.008 9.3759 8.664 9.2319 8.28C9.0559 7.912 8.9279 7.536 8.8479 7.152C8.7679 6.768 8.7279 6.36 8.7279 5.928C8.7279 5.512 8.7679 5.12 8.8479 4.752C8.9279 4.384 9.0559 4.056 9.2319 3.768C9.4079 3.448 9.6399 3.152 9.9279 2.88C10.2159 2.592 10.5519 2.32 10.9359 2.064C11.1119 1.936 11.3039 1.832 11.5119 1.752C11.7359 1.672 11.9919 1.592 12.2799 1.512C12.8079 1.368 13.3919 1.232 14.0319 1.104C14.3519 1.04 14.6559 1 14.9439 0.984001C15.2479 0.952002 15.5519 0.928002 15.8559 0.912002C16.4319 0.864002 16.9279 0.864002 17.3439 0.912002C17.7279 0.928002 18.0719 0.952002 18.3759 0.984001C18.6959 1 19.0159 1.04 19.3359 1.104C19.6079 1.168 19.9039 1.248 20.2239 1.344C20.5599 1.424 20.8879 1.528 21.2079 1.656C21.3519 1.72 21.5039 1.792 21.6639 1.872C21.8239 1.952 21.9919 2.048 22.1679 2.16C22.6159 2.432 22.9279 2.688 23.1039 2.928C23.2479 3.12 23.3759 3.312 23.4879 3.504C23.6159 3.68 23.7199 3.856 23.7999 4.032C23.8959 4.192 23.9759 4.368 24.0399 4.56C24.1039 4.752 24.1519 4.936 24.1839 5.112ZM9.7119 15.528C9.3439 15.528 8.9919 15.472 8.6559 15.36C8.3359 15.328 8.0799 15.136 7.8879 14.784C7.7759 14.656 7.6959 14.52 7.6479 14.376C7.6159 14.232 7.5999 14.088 7.5999 13.944C7.5999 13.624 7.7279 13.336 7.9839 13.08C8.0319 13.032 8.0959 12.984 8.1759 12.936C8.2559 12.888 8.3519 12.856 8.4639 12.84C8.5439 12.776 8.6239 12.744 8.7039 12.744C8.7999 12.728 8.9039 12.704 9.0159 12.672C9.0959 12.64 9.1679 12.624 9.2319 12.624C9.2959 12.624 9.3679 12.624 9.4479 12.624H23.6559C23.8159 12.624 23.9519 12.64 24.0639 12.672C24.1919 12.688 24.3279 12.72 24.4719 12.768C24.7279 12.864 24.9439 13.016 25.1199 13.224C25.2159 13.336 25.2719 13.456 25.2879 13.584C25.3199 13.696 25.3359 13.84 25.3359 14.016C25.3359 14.464 25.2079 14.76 24.9519 14.904C24.8239 15.032 24.6719 15.136 24.4959 15.216C24.3359 15.28 24.1679 15.328 23.9919 15.36C23.6559 15.472 23.2719 15.528 22.8399 15.528H18.1359C18.1519 15.592 18.1599 15.68 18.1599 15.792V17.856C18.1599 18 18.1599 18.136 18.1599 18.264C18.1599 18.392 18.1439 18.496 18.1119 18.576C18.0799 18.752 18.0479 18.912 18.0159 19.056C17.9839 19.2 17.9279 19.352 17.8479 19.512C17.7359 19.784 17.5439 20.024 17.2719 20.232C17.1439 20.312 17.0079 20.36 16.8639 20.376C16.7359 20.408 16.5919 20.432 16.4319 20.448C16.2559 20.448 16.0959 20.432 15.9519 20.4C15.8239 20.368 15.6959 20.328 15.5679 20.28C15.3439 20.136 15.1759 19.952 15.0639 19.728C15.0159 19.6 14.9759 19.472 14.9439 19.344C14.9279 19.216 14.9119 19.104 14.8959 19.008C14.8959 18.912 14.8879 18.808 14.8719 18.696C14.8559 18.584 14.8479 18.488 14.8479 18.408C14.8799 18.312 14.8959 18.216 14.8959 18.12C14.8959 18.008 14.8959 17.92 14.8959 17.856C14.8639 17.664 14.8479 17.408 14.8479 17.088C14.8479 16.752 14.8479 16.464 14.8479 16.224V15.528H9.7119ZM21.1359 6.36C21.1359 5.992 21.0719 5.68 20.9439 5.424C20.8639 5.264 20.7599 5.12 20.6319 4.992C20.5199 4.864 20.3759 4.752 20.1999 4.656C20.0239 4.528 19.7999 4.44 19.5279 4.392C19.2559 4.328 18.9759 4.296 18.6879 4.296C18.2079 4.232 17.6079 4.184 16.8879 4.152C16.5359 4.12 16.1919 4.112 15.8559 4.128C15.5199 4.144 15.1839 4.16 14.8479 4.176C14.5119 4.208 14.1919 4.256 13.8879 4.32C13.5999 4.384 13.3279 4.488 13.0719 4.632C12.5279 4.84 12.2159 5.2 12.1359 5.712C12.0559 6.048 12.0559 6.328 12.1359 6.552C12.1679 6.712 12.2159 6.856 12.2799 6.984C12.3439 7.112 12.4479 7.232 12.5919 7.344C12.7999 7.552 13.1039 7.72 13.5039 7.848C13.8559 8.04 14.3599 8.136 15.0159 8.136C15.2559 8.168 15.4959 8.192 15.7359 8.208C15.9919 8.224 16.2719 8.248 16.5759 8.28H18.3039C18.8799 8.216 19.4079 8.136 19.8879 8.04C20.3839 7.832 20.7359 7.6 20.9439 7.344C21.0079 7.168 21.0479 7.008 21.0639 6.864C21.0799 6.704 21.1039 6.536 21.1359 6.36ZM40.775 8.352C41.079 8.512 41.375 8.704 41.663 8.928C41.951 9.136 42.223 9.36 42.479 9.6C42.607 9.728 42.695 9.888 42.743 10.08C42.791 10.272 42.791 10.464 42.743 10.656C42.711 10.848 42.631 11.024 42.503 11.184C42.391 11.328 42.239 11.424 42.047 11.472C41.535 11.6 40.999 11.592 40.439 11.448C39.895 11.304 39.391 11.12 38.927 10.896C38.495 10.672 38.095 10.464 37.727 10.272C37.359 10.064 36.991 9.848 36.623 9.624C36.511 9.544 36.359 9.456 36.167 9.36C35.991 9.248 35.815 9.136 35.639 9.024C35.431 8.896 35.207 8.768 34.967 8.64C34.695 8.784 34.431 8.92 34.175 9.048C33.951 9.16 33.727 9.272 33.503 9.384C33.295 9.48 33.127 9.568 32.999 9.648C32.583 9.888 32.199 10.096 31.847 10.272C31.495 10.448 31.111 10.648 30.695 10.872C30.375 11.032 30.047 11.208 29.711 11.4C29.391 11.576 29.047 11.648 28.679 11.616C28.391 11.584 28.111 11.496 27.839 11.352C27.567 11.208 27.399 10.96 27.335 10.608C27.303 10.416 27.319 10.208 27.383 9.984C27.447 9.712 27.551 9.488 27.695 9.312C27.855 9.136 28.047 8.976 28.271 8.832L29.927 7.896C30.199 7.736 30.439 7.608 30.647 7.512C30.855 7.4 31.103 7.264 31.391 7.104C31.663 6.944 31.975 6.768 32.327 6.576C32.695 6.368 33.039 6.2 33.359 6.072V4.128H30.815C30.559 4.128 30.335 4.136 30.143 4.152C29.967 4.152 29.759 4.136 29.519 4.104C29.343 4.072 29.151 4.056 28.943 4.056C28.735 4.056 28.543 4.008 28.367 3.912C28.191 3.816 28.047 3.648 27.935 3.408C27.839 3.232 27.783 3.024 27.767 2.784C27.751 2.544 27.783 2.328 27.863 2.136C27.991 1.848 28.199 1.632 28.487 1.488C28.775 1.344 29.071 1.272 29.375 1.272H29.927C30.183 1.288 30.367 1.296 30.479 1.296C30.607 1.28 30.799 1.272 31.055 1.272H39.359C39.615 1.272 39.911 1.264 40.247 1.248C40.583 1.232 40.903 1.256 41.207 1.32C41.527 1.384 41.807 1.504 42.047 1.68C42.303 1.856 42.471 2.136 42.551 2.52C42.647 2.968 42.575 3.312 42.335 3.552C42.111 3.776 41.815 3.944 41.447 4.056C41.095 4.152 40.719 4.208 40.319 4.224C39.919 4.224 39.591 4.216 39.335 4.2C39.079 4.184 38.807 4.176 38.519 4.176C38.247 4.16 37.983 4.152 37.727 4.152C37.439 4.152 37.151 4.16 36.863 4.176V6.12C37.087 6.248 37.295 6.36 37.487 6.456C37.583 6.504 37.671 6.56 37.751 6.624C37.847 6.672 37.943 6.728 38.039 6.792C38.199 6.872 38.351 6.952 38.495 7.032C38.655 7.112 38.815 7.2 38.975 7.296C39.279 7.472 39.575 7.648 39.863 7.824C40.167 8 40.471 8.176 40.775 8.352ZM28.415 15.912C28.047 15.896 27.695 15.848 27.359 15.768C27.039 15.672 26.775 15.464 26.567 15.144C26.391 14.872 26.303 14.584 26.303 14.28C26.319 13.96 26.439 13.688 26.663 13.464C26.791 13.336 26.951 13.24 27.143 13.176C27.335 13.112 27.519 13.064 27.695 13.032C27.871 13 28.023 12.984 28.151 12.984C28.295 12.984 28.375 12.984 28.391 12.984H41.471C41.727 12.968 41.999 12.968 42.287 12.984C42.591 13 42.871 13.056 43.127 13.152C43.383 13.232 43.599 13.376 43.775 13.584C43.951 13.776 44.039 14.048 44.039 14.4C44.039 14.8 43.903 15.104 43.631 15.312C43.359 15.504 43.031 15.648 42.647 15.744C42.279 15.824 41.895 15.872 41.495 15.888C41.095 15.888 40.767 15.888 40.511 15.888H39.575C39.255 15.904 38.943 15.912 38.639 15.912C38.335 15.896 38.023 15.888 37.703 15.888H36.791C36.807 16.336 36.823 16.808 36.839 17.304C36.855 17.8 36.831 18.24 36.767 18.624C36.735 18.928 36.655 19.216 36.527 19.488C36.415 19.776 36.223 20.008 35.951 20.184C35.711 20.344 35.431 20.424 35.111 20.424C34.791 20.44 34.503 20.376 34.247 20.232C34.039 20.104 33.879 19.92 33.767 19.68C33.671 19.44 33.607 19.208 33.575 18.984C33.543 18.808 33.527 18.616 33.527 18.408C33.543 18.2 33.551 18.008 33.551 17.832C33.535 17.544 33.527 17.232 33.527 16.896C33.527 16.544 33.527 16.2 33.527 15.864H32.927C32.479 15.864 32.071 15.872 31.703 15.888C31.351 15.888 31.007 15.896 30.671 15.912C30.335 15.912 29.983 15.912 29.615 15.912C29.263 15.912 28.863 15.912 28.415 15.912ZM52.0142 1.392C52.1902 1.392 52.3982 1.4 52.6382 1.416C53.0702 1.416 53.4222 1.504 53.6942 1.68C53.9822 1.856 54.2062 2.08 54.3662 2.352C54.5262 2.608 54.6302 2.88 54.6782 3.168C54.7422 3.456 54.7742 3.72 54.7742 3.96V16.08C54.7742 16.096 54.7662 16.192 54.7502 16.368C54.7502 16.528 54.7342 16.72 54.7022 16.944C54.6862 17.152 54.6462 17.376 54.5822 17.616C54.5342 17.84 54.4702 18.032 54.3902 18.192C54.2942 18.384 54.1342 18.536 53.9102 18.648C53.7022 18.744 53.4862 18.824 53.2622 18.888C53.0542 18.936 52.8622 18.968 52.6862 18.984C52.5102 18.984 52.4142 18.984 52.3982 18.984H48.9182C48.7902 18.984 48.5982 18.976 48.3422 18.96C48.1022 18.928 47.8462 18.872 47.5742 18.792C47.3022 18.696 47.0462 18.568 46.8062 18.408C46.5662 18.232 46.3902 17.992 46.2782 17.688C46.0862 17.176 45.9742 16.648 45.9422 16.104C45.9262 15.544 45.9262 14.984 45.9422 14.424V5.736C45.9422 5.688 45.9262 5.536 45.8942 5.28C45.8782 5.008 45.8702 4.696 45.8702 4.344C45.8862 3.992 45.9102 3.632 45.9422 3.264C45.9902 2.88 46.0702 2.568 46.1822 2.328C46.3262 2.024 46.5102 1.8 46.7342 1.656C46.9742 1.512 47.2302 1.424 47.5022 1.392C47.7902 1.36 48.0782 1.352 48.3662 1.368C48.6542 1.384 48.9262 1.392 49.1822 1.392C49.6142 1.392 49.9822 1.4 50.2862 1.416C50.5902 1.416 50.9502 1.408 51.3662 1.392H52.0142ZM63.2942 17.28C63.3102 17.712 63.2862 18.152 63.2222 18.6C63.1582 19.048 62.9502 19.392 62.5982 19.632C62.3262 19.792 62.0862 19.872 61.8782 19.872C61.6062 19.872 61.3822 19.776 61.2062 19.584C61.0462 19.392 60.9182 19.16 60.8222 18.888C60.7422 18.616 60.6862 18.336 60.6542 18.048C60.6382 17.744 60.6302 17.48 60.6302 17.256V11.4H59.0702V17.4C59.1022 17.768 59.0862 18.152 59.0222 18.552C58.9742 18.936 58.8702 19.24 58.7102 19.464C58.5182 19.736 58.2382 19.872 57.8702 19.872C57.6942 19.872 57.5262 19.832 57.3662 19.752C57.2222 19.672 57.0862 19.568 56.9582 19.44C56.6862 19.168 56.5262 18.84 56.4782 18.456C56.4302 18.072 56.4062 17.696 56.4062 17.328V3.408C56.4062 3.184 56.4142 2.944 56.4302 2.688C56.4462 2.416 56.4942 2.16 56.5742 1.92C56.6542 1.68 56.7662 1.472 56.9102 1.296C57.0702 1.104 57.2862 0.976002 57.5582 0.912002C57.9262 0.832002 58.2222 0.920002 58.4462 1.176C58.6222 1.352 58.7502 1.6 58.8302 1.92C58.9262 2.24 58.9902 2.592 59.0222 2.976C59.0542 3.344 59.0702 3.736 59.0702 4.152C59.0702 4.552 59.0702 4.928 59.0702 5.28V8.496H60.6302V3.624C60.6302 3.4 60.6302 3.144 60.6302 2.856C60.6302 2.552 60.6542 2.264 60.7022 1.992C60.7662 1.704 60.8782 1.464 61.0382 1.272C61.2142 1.064 61.4702 0.944002 61.8062 0.912002C62.1582 0.880002 62.4382 0.984001 62.6462 1.224C62.8382 1.416 62.9822 1.672 63.0782 1.992C63.1742 2.312 63.2382 2.656 63.2702 3.024C63.3022 3.392 63.3182 3.76 63.3182 4.128C63.3182 4.48 63.3102 4.784 63.2942 5.04V17.28ZM48.8222 15.432C48.8382 15.56 48.8782 15.688 48.9422 15.816C49.0222 15.928 49.1342 16 49.2782 16.032L50.7182 16.056C50.8942 16.04 51.0622 16.024 51.2222 16.008C51.3822 15.976 51.5262 15.92 51.6542 15.84C51.7982 15.744 51.8782 15.584 51.8942 15.36C51.9262 15.12 51.9342 14.888 51.9182 14.664V14.4C51.9182 14.192 51.9182 14.016 51.9182 13.872C51.9182 13.712 51.9182 13.568 51.9182 13.44C51.9182 13.296 51.9182 13.152 51.9182 13.008C51.9182 12.848 51.9182 12.672 51.9182 12.48V6.6C51.9182 6.408 51.9102 6.216 51.8942 6.024C51.8782 5.864 51.8622 5.696 51.8462 5.52C51.8462 5.328 51.8382 5.168 51.8222 5.04C51.7902 4.736 51.6942 4.552 51.5342 4.488C51.3902 4.424 51.2782 4.392 51.1982 4.392H51.1742L49.9022 4.344C49.5822 4.344 49.3422 4.4 49.1822 4.512C49.0382 4.608 48.9262 4.768 48.8462 4.992C48.8302 5.072 48.8222 5.184 48.8222 5.328C48.8222 5.472 48.8222 5.632 48.8222 5.808C48.8222 5.968 48.8222 6.128 48.8222 6.288C48.8222 6.448 48.8222 6.576 48.8222 6.672V15.432ZM69.032 12.12C69.128 12.024 69.216 11.912 69.296 11.784C69.392 11.64 69.464 11.544 69.512 11.496V6.072C69.432 6.104 69.36 6.112 69.296 6.096C69.232 6.08 69.16 6.072 69.08 6.072H68.432C67.872 6.072 67.384 6.064 66.968 6.048C66.568 6.032 66.312 6.008 66.2 5.976C65.912 5.912 65.664 5.808 65.456 5.664C65.264 5.504 65.12 5.28 65.024 4.992C64.992 4.88 64.968 4.776 64.952 4.68C64.936 4.584 64.944 4.472 64.976 4.344C64.976 4.184 65.056 3.984 65.216 3.744C65.264 3.664 65.336 3.592 65.432 3.528C65.528 3.464 65.624 3.408 65.72 3.36C65.816 3.28 65.912 3.232 66.008 3.216C66.104 3.184 66.2 3.152 66.296 3.12H69.464C69.464 2.944 69.472 2.712 69.488 2.424C69.504 2.12 69.512 1.896 69.512 1.752C69.544 1.544 69.592 1.36 69.656 1.2C69.72 1.024 69.792 0.864002 69.872 0.720002C70.064 0.416002 70.344 0.216002 70.712 0.120001C70.888 0.0400009 71.064 0.00800133 71.24 0.0240021C71.432 0.0400019 71.616 0.0880017 71.792 0.168002C71.92 0.216002 72.032 0.288002 72.128 0.384002C72.24 0.464002 72.32 0.560001 72.368 0.672001C72.56 0.896002 72.68 1.12 72.728 1.344C72.76 1.472 72.784 1.608 72.8 1.752C72.816 1.896 72.824 2.04 72.824 2.184V3.12H74.456C74.776 3.12 75.064 3.128 75.32 3.144C75.576 3.16 75.816 3.184 76.04 3.216C76.264 3.264 76.464 3.352 76.64 3.48C76.832 3.592 76.992 3.752 77.12 3.96C77.248 4.168 77.312 4.392 77.312 4.632C77.36 4.808 77.328 5.008 77.216 5.232C77.024 5.6 76.648 5.848 76.088 5.976C75.912 6.008 75.712 6.024 75.488 6.024C75.28 6.024 75.056 6.04 74.816 6.072C74.56 6.072 74.264 6.08 73.928 6.096C73.592 6.112 73.224 6.104 72.824 6.072C72.824 6.2 72.816 6.352 72.8 6.528C72.8 6.704 72.8 6.88 72.8 7.056C72.8 7.232 72.8 7.4 72.8 7.56C72.8 7.704 72.808 7.824 72.824 7.92V10.56C72.824 10.64 72.816 10.72 72.8 10.8C72.784 10.864 72.792 10.944 72.824 11.04V11.424C72.904 11.488 72.976 11.576 73.04 11.688C73.12 11.784 73.224 11.896 73.352 12.024C73.464 12.12 73.552 12.216 73.616 12.312C73.696 12.408 73.776 12.496 73.856 12.576C73.936 12.672 74.008 12.768 74.072 12.864C74.152 12.96 74.24 13.056 74.336 13.152C74.416 13.232 74.496 13.328 74.576 13.44C74.656 13.552 74.744 13.656 74.84 13.752C74.888 13.832 74.936 13.904 74.984 13.968C75.032 14.032 75.08 14.088 75.128 14.136C75.224 14.28 75.304 14.416 75.368 14.544C75.528 14.736 75.68 14.936 75.824 15.144C75.968 15.336 76.112 15.56 76.256 15.816C76.432 16.04 76.568 16.272 76.664 16.512C76.776 16.736 76.856 16.96 76.904 17.184C76.952 17.408 76.952 17.64 76.904 17.88C76.856 18.12 76.744 18.336 76.568 18.528C76.344 18.72 76.048 18.816 75.68 18.816C75.504 18.816 75.336 18.8 75.176 18.768C75.032 18.72 74.872 18.656 74.696 18.576C74.536 18.48 74.392 18.384 74.264 18.288C74.152 18.176 74.032 18.072 73.904 17.976C73.76 17.832 73.624 17.68 73.496 17.52C73.368 17.344 73.24 17.184 73.112 17.04C72.984 16.896 72.856 16.744 72.728 16.584C72.616 16.408 72.496 16.232 72.368 16.056C72.192 15.88 72 15.648 71.792 15.36C71.696 15.216 71.584 15.096 71.456 15C71.344 14.888 71.24 14.784 71.144 14.688C71.048 14.816 70.952 14.944 70.856 15.072C70.76 15.184 70.664 15.304 70.568 15.432C70.456 15.56 70.352 15.68 70.256 15.792C70.16 15.904 70.064 16.024 69.968 16.152C69.872 16.312 69.76 16.472 69.632 16.632C69.52 16.792 69.4 16.944 69.272 17.088C69.176 17.248 69.064 17.408 68.936 17.568C68.824 17.728 68.688 17.88 68.528 18.024C68.208 18.344 67.904 18.568 67.616 18.696C67.344 18.808 67.064 18.864 66.776 18.864C66.696 18.864 66.616 18.864 66.536 18.864C66.472 18.864 66.4 18.848 66.32 18.816C65.984 18.72 65.736 18.504 65.576 18.168C65.464 17.912 65.432 17.656 65.48 17.4C65.512 17.24 65.544 17.096 65.576 16.968C65.608 16.824 65.664 16.704 65.744 16.608C65.792 16.48 65.848 16.36 65.912 16.248C65.976 16.12 66.048 15.992 66.128 15.864C66.208 15.768 66.28 15.664 66.344 15.552C66.424 15.44 66.52 15.328 66.632 15.216C66.68 15.168 66.728 15.112 66.776 15.048C66.824 14.984 66.872 14.928 66.92 14.88L67.208 14.448C67.256 14.336 67.312 14.248 67.376 14.184C67.44 14.104 67.536 13.976 67.664 13.8C67.792 13.656 67.912 13.512 68.024 13.368C68.136 13.224 68.24 13.088 68.336 12.96C68.464 12.816 68.584 12.672 68.696 12.528C68.824 12.384 68.936 12.248 69.032 12.12ZM82.16 18.168C82.128 18.264 82.112 18.36 82.112 18.456C82.112 18.552 82.096 18.648 82.064 18.744C82.064 19 81.992 19.272 81.848 19.56C81.72 19.848 81.544 20.056 81.32 20.184C81.144 20.264 80.952 20.312 80.744 20.328C80.552 20.36 80.368 20.36 80.192 20.328C79.84 20.248 79.584 20.072 79.424 19.8C79.264 19.544 79.16 19.256 79.112 18.936C79.08 18.808 79.064 18.688 79.064 18.576C79.064 18.464 79.048 18.344 79.016 18.216C79.016 17.992 79.024 17.744 79.04 17.472C79.056 17.184 79.064 16.904 79.064 16.632C79.032 16.04 79.024 15.464 79.04 14.904C79.056 14.328 79.064 13.736 79.064 13.128C79.064 12.44 79.056 11.752 79.04 11.064C79.024 10.36 79.032 9.656 79.064 8.952V2.352C79.096 2.224 79.12 2.112 79.136 2.016C79.152 1.92 79.176 1.824 79.208 1.728C79.256 1.632 79.296 1.544 79.328 1.464C79.36 1.384 79.416 1.32 79.496 1.272C79.576 1.192 79.664 1.128 79.76 1.08C79.856 1.016 79.952 0.984001 80.048 0.984001C80.144 0.952002 80.24 0.928002 80.336 0.912002C80.432 0.896001 80.528 0.888001 80.624 0.888001C80.912 0.888001 81.16 0.968001 81.368 1.128C81.608 1.272 81.776 1.488 81.872 1.776C82.032 2.096 82.112 2.44 82.112 2.808C82.144 3.304 82.16 3.792 82.16 4.272C82.16 4.736 82.16 5.216 82.16 5.712C82.208 6.384 82.208 7.056 82.16 7.728V18.168ZM7.00801 29.04C7.08001 29.144 7.10401 29.308 7.08001 29.532C7.06401 29.748 7.02401 29.984 6.96001 30.24C6.89601 30.488 6.82001 30.736 6.73201 30.984C6.64401 31.224 6.57201 31.424 6.51601 31.584C6.38001 31.952 6.26001 32.296 6.15601 32.616C6.05201 32.936 5.92801 33.288 5.78401 33.672C5.73601 33.784 5.68801 33.896 5.64001 34.008C5.60001 34.12 5.54801 34.22 5.48401 34.308C5.42801 34.396 5.35601 34.468 5.26801 34.524C5.18801 34.58 5.08801 34.608 4.96801 34.608C4.83201 34.608 4.71201 34.56 4.60801 34.464C4.51201 34.368 4.42801 34.248 4.35601 34.104C4.29201 33.96 4.23601 33.808 4.18801 33.648C4.14001 33.488 4.10001 33.348 4.06801 33.228C3.96401 32.876 3.87201 32.556 3.79201 32.268C3.71201 31.972 3.64001 31.708 3.57601 31.476C3.50401 31.708 3.43201 31.96 3.36001 32.232C3.28801 32.504 3.19601 32.812 3.08401 33.156C3.05201 33.276 3.01201 33.424 2.96401 33.6C2.91601 33.768 2.85601 33.928 2.78401 34.08C2.72001 34.232 2.63601 34.36 2.53201 34.464C2.43601 34.576 2.32001 34.624 2.18401 34.608C1.99201 34.6 1.82401 34.524 1.68001 34.38C1.54401 34.228 1.42401 34.048 1.32001 33.84C1.22401 33.632 1.14001 33.416 1.06801 33.192C0.996013 32.968 0.936013 32.772 0.888013 32.604C0.824013 32.388 0.748013 32.148 0.660013 31.884C0.572013 31.62 0.484013 31.352 0.396013 31.08C0.316013 30.8 0.240013 30.524 0.168013 30.252C0.096013 29.972 0.048013 29.716 0.024013 29.484C0.00801295 29.332 0.0360129 29.192 0.108013 29.064C0.188013 28.936 0.288013 28.848 0.408013 28.8C0.536013 28.744 0.672013 28.732 0.816013 28.764C0.968013 28.796 1.10401 28.892 1.22401 29.052C1.28801 29.132 1.34401 29.232 1.39201 29.352C1.44801 29.472 1.49601 29.604 1.53601 29.748C1.57601 29.884 1.61601 30.024 1.65601 30.168C1.69601 30.312 1.73601 30.452 1.77601 30.588C1.86401 30.892 1.93601 31.132 1.99201 31.308C2.05601 31.476 2.12001 31.652 2.18401 31.836C2.24001 31.652 2.29601 31.476 2.35201 31.308C2.41601 31.132 2.49201 30.892 2.58001 30.588C2.61201 30.492 2.64801 30.384 2.68801 30.264C2.73601 30.136 2.78401 30.016 2.83201 29.904C2.88801 29.792 2.94801 29.688 3.01201 29.592C3.08401 29.488 3.16001 29.412 3.24001 29.364C3.41601 29.244 3.57601 29.216 3.72001 29.28C3.86401 29.336 3.98801 29.436 4.09201 29.58C4.19601 29.724 4.28401 29.892 4.35601 30.084C4.43601 30.268 4.50001 30.436 4.54801 30.588C4.59601 30.748 4.64001 30.888 4.68001 31.008C4.72001 31.12 4.75601 31.224 4.78801 31.32C4.82001 31.416 4.84801 31.508 4.87201 31.596C4.90401 31.684 4.93601 31.776 4.96801 31.872C5.00001 31.776 5.02801 31.684 5.05201 31.596C5.08401 31.508 5.11601 31.416 5.14801 31.32C5.18001 31.224 5.21601 31.12 5.25601 31.008C5.29601 30.888 5.34001 30.748 5.38801 30.588C5.42001 30.484 5.45201 30.364 5.48401 30.228C5.52401 30.092 5.56401 29.956 5.60401 29.82C5.64401 29.676 5.68401 29.54 5.72401 29.412C5.77201 29.284 5.82401 29.176 5.88001 29.088C5.93601 29 6.01201 28.928 6.10801 28.872C6.20401 28.808 6.30401 28.772 6.40801 28.764C6.51201 28.748 6.61601 28.76 6.72001 28.8C6.83201 28.84 6.92801 28.92 7.00801 29.04ZM9.61079 29.016C9.87479 28.888 10.1508 28.796 10.4388 28.74C10.7268 28.684 11.0108 28.672 11.2908 28.704C11.5788 28.736 11.8548 28.812 12.1188 28.932C12.3908 29.052 12.6388 29.22 12.8628 29.436C13.0468 29.62 13.2068 29.844 13.3428 30.108C13.4788 30.364 13.5788 30.616 13.6428 30.864C13.7788 31.304 13.7988 31.748 13.7028 32.196C13.6068 32.644 13.4428 33.06 13.2108 33.444C13.0988 33.62 12.9588 33.78 12.7908 33.924C12.6308 34.06 12.4588 34.172 12.2748 34.26C12.0348 34.372 11.7748 34.448 11.4948 34.488C11.2148 34.536 10.9428 34.548 10.6788 34.524C10.1988 34.5 9.77479 34.38 9.40679 34.164C9.04679 33.948 8.75479 33.672 8.53079 33.336C8.31479 33 8.17079 32.62 8.09879 32.196C8.03479 31.764 8.06279 31.324 8.18279 30.876C8.31079 30.396 8.49479 30.008 8.73479 29.712C8.98279 29.408 9.27479 29.176 9.61079 29.016ZM9.97079 30.624C9.85079 30.736 9.75879 30.876 9.69479 31.044C9.63079 31.212 9.59079 31.388 9.57479 31.572C9.55879 31.748 9.57079 31.928 9.61079 32.112C9.65879 32.288 9.73079 32.448 9.82679 32.592C9.90679 32.712 10.0508 32.812 10.2588 32.892C10.4668 32.972 10.6828 33.02 10.9068 33.036C11.1628 33.052 11.3868 32.984 11.5788 32.832C11.7708 32.672 11.9148 32.476 12.0108 32.244C12.1148 32.012 12.1628 31.76 12.1548 31.488C12.1468 31.216 12.0748 30.968 11.9388 30.744C11.8428 30.584 11.7068 30.468 11.5308 30.396C11.3628 30.316 11.1828 30.276 10.9908 30.276C10.8068 30.268 10.6228 30.296 10.4388 30.36C10.2548 30.416 10.0988 30.504 9.97079 30.624ZM19.651 31.584C19.635 31.848 19.619 32.116 19.603 32.388C19.587 32.652 19.543 32.908 19.471 33.156C19.407 33.404 19.303 33.628 19.159 33.828C19.023 34.028 18.827 34.188 18.571 34.308C18.347 34.42 18.107 34.496 17.851 34.536C17.595 34.584 17.339 34.604 17.083 34.596C16.827 34.588 16.579 34.548 16.339 34.476C16.099 34.412 15.883 34.32 15.691 34.2C15.499 34.08 15.343 33.924 15.223 33.732C15.103 33.54 15.007 33.332 14.935 33.108C14.871 32.884 14.827 32.652 14.803 32.412C14.779 32.172 14.763 31.948 14.755 31.74C14.723 31.188 14.723 30.644 14.755 30.108C14.755 30.004 14.755 29.888 14.755 29.76C14.755 29.624 14.763 29.492 14.779 29.364C14.803 29.236 14.839 29.12 14.887 29.016C14.935 28.904 15.015 28.82 15.127 28.764C15.367 28.636 15.587 28.628 15.787 28.74C15.995 28.852 16.119 29.084 16.159 29.436C16.183 29.62 16.191 29.824 16.183 30.048C16.183 30.272 16.191 30.476 16.207 30.66C16.215 30.932 16.223 31.228 16.231 31.548C16.239 31.86 16.283 32.14 16.363 32.388C16.451 32.636 16.591 32.824 16.783 32.952C16.983 33.072 17.279 33.076 17.671 32.964C17.855 32.908 17.975 32.768 18.031 32.544C18.095 32.32 18.127 31.988 18.127 31.548C18.127 31.356 18.123 31.144 18.115 30.912C18.107 30.68 18.103 30.452 18.103 30.228C18.103 29.996 18.107 29.784 18.115 29.592C18.131 29.392 18.155 29.24 18.187 29.136C18.227 28.992 18.311 28.884 18.439 28.812C18.567 28.74 18.703 28.704 18.847 28.704C18.991 28.696 19.127 28.724 19.255 28.788C19.383 28.852 19.471 28.956 19.519 29.1C19.567 29.228 19.599 29.392 19.615 29.592C19.639 29.784 19.655 29.996 19.663 30.228C19.671 30.452 19.671 30.684 19.663 30.924C19.663 31.156 19.659 31.376 19.651 31.584ZM22.4908 33.48C22.4828 33.52 22.4748 33.56 22.4668 33.6C22.4668 33.632 22.4668 33.668 22.4668 33.708L22.3948 33.96C22.3788 33.992 22.3668 34.012 22.3588 34.02L22.3228 34.092C22.2828 34.18 22.2108 34.252 22.1068 34.308C21.9148 34.404 21.7108 34.428 21.4948 34.38C21.3588 34.364 21.2508 34.324 21.1708 34.26C21.0908 34.204 21.0348 34.136 21.0028 34.056C20.9708 33.976 20.9468 33.896 20.9308 33.816C20.9068 33.736 20.8948 33.664 20.8948 33.6V26.88C20.8948 26.824 20.8948 26.776 20.8948 26.736C20.9028 26.688 20.9108 26.644 20.9188 26.604C20.9268 26.548 20.9348 26.5 20.9428 26.46C20.9588 26.42 20.9748 26.376 20.9908 26.328C21.0148 26.248 21.0588 26.184 21.1228 26.136C21.2188 26.064 21.3108 26.024 21.3988 26.016C21.4548 26 21.5068 25.992 21.5548 25.992C21.6028 25.984 21.6588 25.98 21.7228 25.98C21.8348 25.98 21.9628 26.012 22.1068 26.076C22.2188 26.14 22.2988 26.228 22.3468 26.34C22.4268 26.5 22.4668 26.648 22.4668 26.784C22.4748 26.864 22.4788 26.984 22.4788 27.144C22.4868 27.304 22.4908 27.424 22.4908 27.504V27.552C22.5068 27.808 22.5148 28.056 22.5148 28.296C22.5148 28.528 22.5108 28.784 22.5028 29.064C22.5028 29.336 22.4988 29.6 22.4908 29.856C22.4908 30.104 22.4908 30.352 22.4908 30.6V33.12C22.4908 33.152 22.4908 33.184 22.4908 33.216C22.4988 33.24 22.5028 33.268 22.5028 33.3C22.5028 33.38 22.4988 33.44 22.4908 33.48ZM27.217 26.052C27.369 26.012 27.501 26.008 27.613 26.04C27.733 26.064 27.833 26.116 27.913 26.196C28.001 26.276 28.065 26.376 28.105 26.496C28.153 26.616 28.177 26.748 28.177 26.892C28.185 27.292 28.185 27.604 28.177 27.828C28.177 28.052 28.177 28.248 28.177 28.416V32.1C28.177 32.532 28.177 32.892 28.177 33.18C28.177 33.468 28.161 33.704 28.129 33.888C28.105 34.064 28.057 34.196 27.985 34.284C27.921 34.372 27.821 34.432 27.685 34.464C27.549 34.504 27.369 34.524 27.145 34.524C26.929 34.524 26.657 34.524 26.329 34.524C25.465 34.524 24.781 34.32 24.277 33.912C23.781 33.504 23.517 32.856 23.485 31.968C23.469 31.584 23.517 31.232 23.629 30.912C23.741 30.592 23.905 30.32 24.121 30.096C24.345 29.864 24.617 29.688 24.937 29.568C25.265 29.44 25.637 29.38 26.053 29.388H26.713V27.24C26.713 27.112 26.713 26.988 26.713 26.868C26.713 26.74 26.725 26.624 26.749 26.52C26.773 26.408 26.821 26.312 26.893 26.232C26.965 26.152 27.073 26.092 27.217 26.052ZM25.129 32.712C25.297 32.944 25.601 33.072 26.041 33.096C26.129 33.104 26.213 33.108 26.293 33.108C26.373 33.1 26.445 33.088 26.509 33.072C26.581 33.064 26.649 33.052 26.713 33.036V30.816C26.433 30.768 26.177 30.74 25.945 30.732C25.721 30.716 25.497 30.796 25.273 30.972C25.153 31.068 25.061 31.192 24.997 31.344C24.933 31.488 24.897 31.644 24.889 31.812C24.881 31.972 24.897 32.132 24.937 32.292C24.977 32.452 25.041 32.592 25.129 32.712ZM38.2505 29.088C38.3225 29.2 38.3545 29.32 38.3465 29.448C38.3465 29.632 38.3145 29.792 38.2505 29.928C38.2345 29.968 38.2105 30.02 38.1785 30.084C38.1545 30.148 38.1265 30.216 38.0945 30.288C38.0705 30.36 38.0425 30.428 38.0105 30.492C37.9785 30.556 37.9545 30.604 37.9385 30.636L37.9145 30.696C37.8025 30.944 37.6945 31.184 37.5905 31.416C37.4865 31.648 37.3705 31.896 37.2425 32.16C37.1145 32.416 36.9905 32.668 36.8705 32.916C36.7585 33.156 36.6465 33.392 36.5345 33.624C36.5025 33.688 36.4745 33.752 36.4505 33.816C36.4265 33.872 36.3945 33.932 36.3545 33.996L35.7785 35.232C35.6745 35.44 35.5745 35.644 35.4785 35.844C35.3905 36.044 35.2905 36.244 35.1785 36.444C35.1545 36.484 35.1305 36.52 35.1065 36.552C35.0905 36.592 35.0745 36.632 35.0585 36.672C35.0025 36.768 34.9185 36.86 34.8065 36.948C34.7025 37.044 34.5905 37.096 34.4705 37.104C34.2545 37.12 34.0665 37.056 33.9065 36.912C33.8105 36.856 33.7345 36.776 33.6785 36.672C33.6465 36.6 33.6305 36.508 33.6305 36.396C33.6385 36.348 33.6425 36.3 33.6425 36.252C33.6505 36.212 33.6585 36.172 33.6665 36.132C33.6825 36.092 33.6945 36.052 33.7025 36.012C33.7105 35.972 33.7225 35.94 33.7385 35.916C33.7625 35.852 33.7825 35.82 33.7985 35.82L34.6745 33.924C34.6345 33.836 34.5945 33.748 34.5545 33.66C34.5145 33.564 34.4785 33.48 34.4465 33.408C34.3425 33.16 34.2305 32.9 34.1105 32.628C33.9985 32.348 33.8825 32.072 33.7625 31.8C33.6425 31.52 33.5185 31.248 33.3905 30.984C33.2625 30.72 33.1345 30.468 33.0065 30.228C32.9585 30.148 32.9145 30.064 32.8745 29.976C32.8345 29.88 32.8025 29.788 32.7785 29.7C32.7545 29.604 32.7465 29.508 32.7545 29.412C32.7625 29.316 32.7985 29.22 32.8625 29.124C32.9265 29.004 33.0105 28.92 33.1145 28.872C33.2185 28.816 33.3265 28.792 33.4385 28.8C33.5585 28.8 33.6705 28.824 33.7745 28.872C33.8785 28.92 33.9625 28.984 34.0265 29.064C34.1625 29.208 34.2705 29.368 34.3505 29.544C34.4305 29.72 34.5065 29.9 34.5785 30.084C34.7305 30.404 34.8865 30.74 35.0465 31.092C35.2065 31.444 35.3665 31.788 35.5265 32.124L36.1505 30.804C36.2145 30.676 36.2705 30.552 36.3185 30.432C36.3745 30.312 36.4305 30.196 36.4865 30.084C36.5505 29.948 36.6105 29.808 36.6665 29.664C36.7305 29.52 36.8025 29.388 36.8825 29.268C36.8985 29.236 36.9145 29.208 36.9305 29.184C36.9465 29.16 36.9625 29.132 36.9785 29.1C37.0505 29.004 37.1145 28.928 37.1705 28.872C37.2105 28.84 37.2425 28.816 37.2665 28.8C37.2985 28.776 37.3345 28.76 37.3745 28.752C37.4305 28.736 37.4825 28.728 37.5305 28.728C37.5865 28.72 37.6385 28.72 37.6865 28.728C37.7665 28.752 37.8625 28.788 37.9745 28.836C38.0945 28.884 38.1865 28.968 38.2505 29.088ZM40.6069 29.016C40.8709 28.888 41.1469 28.796 41.4349 28.74C41.7229 28.684 42.0069 28.672 42.2869 28.704C42.5749 28.736 42.8509 28.812 43.1149 28.932C43.3869 29.052 43.6349 29.22 43.8589 29.436C44.0429 29.62 44.2029 29.844 44.3389 30.108C44.4749 30.364 44.5749 30.616 44.6389 30.864C44.7749 31.304 44.7949 31.748 44.6989 32.196C44.6029 32.644 44.4389 33.06 44.2069 33.444C44.0949 33.62 43.9549 33.78 43.7869 33.924C43.6269 34.06 43.4549 34.172 43.2709 34.26C43.0309 34.372 42.7709 34.448 42.4909 34.488C42.2109 34.536 41.9389 34.548 41.6749 34.524C41.1949 34.5 40.7709 34.38 40.4029 34.164C40.0429 33.948 39.7509 33.672 39.5269 33.336C39.3109 33 39.1669 32.62 39.0949 32.196C39.0309 31.764 39.0589 31.324 39.1789 30.876C39.3069 30.396 39.4909 30.008 39.7309 29.712C39.9789 29.408 40.2709 29.176 40.6069 29.016ZM40.9669 30.624C40.8469 30.736 40.7549 30.876 40.6909 31.044C40.6269 31.212 40.5869 31.388 40.5709 31.572C40.5549 31.748 40.5669 31.928 40.6069 32.112C40.6549 32.288 40.7269 32.448 40.8229 32.592C40.9029 32.712 41.0469 32.812 41.2549 32.892C41.4629 32.972 41.6789 33.02 41.9029 33.036C42.1589 33.052 42.3829 32.984 42.5749 32.832C42.7669 32.672 42.9109 32.476 43.0069 32.244C43.1109 32.012 43.1589 31.76 43.1509 31.488C43.1429 31.216 43.0709 30.968 42.9349 30.744C42.8389 30.584 42.7029 30.468 42.5269 30.396C42.3589 30.316 42.1789 30.276 41.9869 30.276C41.8029 30.268 41.6189 30.296 41.4349 30.36C41.2509 30.416 41.0949 30.504 40.9669 30.624ZM50.6471 31.584C50.6311 31.848 50.6151 32.116 50.5991 32.388C50.5831 32.652 50.5391 32.908 50.4671 33.156C50.4031 33.404 50.2991 33.628 50.1551 33.828C50.0191 34.028 49.8231 34.188 49.5671 34.308C49.3431 34.42 49.1031 34.496 48.8471 34.536C48.5911 34.584 48.3351 34.604 48.0791 34.596C47.8231 34.588 47.5751 34.548 47.3351 34.476C47.0951 34.412 46.8791 34.32 46.6871 34.2C46.4951 34.08 46.3391 33.924 46.2191 33.732C46.0991 33.54 46.0031 33.332 45.9311 33.108C45.8671 32.884 45.8231 32.652 45.7991 32.412C45.7751 32.172 45.7591 31.948 45.7511 31.74C45.7191 31.188 45.7191 30.644 45.7511 30.108C45.7511 30.004 45.7511 29.888 45.7511 29.76C45.7511 29.624 45.7591 29.492 45.7751 29.364C45.7991 29.236 45.8351 29.12 45.8831 29.016C45.9311 28.904 46.0111 28.82 46.1231 28.764C46.3631 28.636 46.5831 28.628 46.7831 28.74C46.9911 28.852 47.1151 29.084 47.1551 29.436C47.1791 29.62 47.1871 29.824 47.1791 30.048C47.1791 30.272 47.1871 30.476 47.2031 30.66C47.2111 30.932 47.2191 31.228 47.2271 31.548C47.2351 31.86 47.2791 32.14 47.3591 32.388C47.4471 32.636 47.5871 32.824 47.7791 32.952C47.9791 33.072 48.2751 33.076 48.6671 32.964C48.8511 32.908 48.9711 32.768 49.0271 32.544C49.0911 32.32 49.1231 31.988 49.1231 31.548C49.1231 31.356 49.1191 31.144 49.1111 30.912C49.1031 30.68 49.0991 30.452 49.0991 30.228C49.0991 29.996 49.1031 29.784 49.1111 29.592C49.1271 29.392 49.1511 29.24 49.1831 29.136C49.2231 28.992 49.3071 28.884 49.4351 28.812C49.5631 28.74 49.6991 28.704 49.8431 28.704C49.9871 28.696 50.1231 28.724 50.2511 28.788C50.3791 28.852 50.4671 28.956 50.5151 29.1C50.5631 29.228 50.5951 29.392 50.6111 29.592C50.6351 29.784 50.6511 29.996 50.6591 30.228C50.6671 30.452 50.6671 30.684 50.6591 30.924C50.6591 31.156 50.6551 31.376 50.6471 31.584ZM61.7348 31.644C61.7508 31.9 61.7588 32.144 61.7588 32.376C61.7588 32.6 61.7508 32.84 61.7348 33.096C61.7348 33.192 61.7348 33.3 61.7348 33.42C61.7348 33.54 61.7268 33.656 61.7108 33.768C61.6948 33.88 61.6668 33.984 61.6268 34.08C61.5868 34.176 61.5268 34.252 61.4468 34.308C61.3508 34.372 61.2428 34.416 61.1228 34.44C61.0028 34.456 60.8908 34.448 60.7868 34.416C60.6828 34.384 60.5908 34.324 60.5108 34.236C60.4388 34.148 60.3988 34.024 60.3908 33.864C60.3668 33.496 60.3548 33.128 60.3548 32.76C60.3548 32.576 60.3508 32.4 60.3428 32.232C60.3428 32.064 60.3468 31.828 60.3548 31.524C60.3548 31.372 60.3428 31.2 60.3188 31.008C60.2948 30.808 60.2348 30.668 60.1388 30.588C60.0668 30.524 59.9868 30.488 59.8988 30.48C59.8108 30.464 59.7228 30.472 59.6348 30.504C59.5548 30.536 59.4828 30.596 59.4188 30.684C59.3548 30.764 59.3108 30.868 59.2868 30.996C59.2868 31.1 59.2828 31.208 59.2748 31.32C59.2748 31.424 59.2788 31.524 59.2868 31.62C59.2948 31.876 59.2988 32.12 59.2988 32.352C59.2988 32.576 59.2948 32.816 59.2868 33.072C59.2788 33.176 59.2748 33.288 59.2748 33.408C59.2828 33.528 59.2828 33.648 59.2748 33.768C59.2668 33.88 59.2428 33.984 59.2028 34.08C59.1708 34.176 59.1108 34.252 59.0228 34.308C58.9268 34.372 58.8228 34.412 58.7108 34.428C58.6068 34.436 58.5068 34.42 58.4108 34.38C58.3228 34.332 58.2428 34.26 58.1708 34.164C58.1068 34.068 58.0708 33.94 58.0628 33.78C58.0468 33.596 58.0348 33.428 58.0268 33.276C58.0268 33.116 58.0268 32.948 58.0268 32.772C58.0268 32.588 58.0308 32.4 58.0388 32.208C58.0468 32.008 58.0428 31.816 58.0268 31.632C58.0268 31.576 58.0228 31.512 58.0148 31.44C58.0148 31.36 58.0108 31.28 58.0028 31.2C58.0028 31.12 57.9948 31.044 57.9788 30.972C57.9708 30.892 57.9548 30.828 57.9308 30.78C57.8668 30.668 57.7508 30.596 57.5828 30.564C57.4228 30.532 57.2868 30.544 57.1748 30.6C57.0628 30.656 56.9788 30.728 56.9228 30.816C56.8668 30.904 56.8268 31 56.8028 31.104C56.7788 31.208 56.7668 31.32 56.7668 31.44C56.7668 31.552 56.7668 31.66 56.7668 31.764C56.7668 32.284 56.7668 32.736 56.7668 33.12C56.7748 33.496 56.7348 33.8 56.6468 34.032C56.6068 34.152 56.5228 34.244 56.3948 34.308C56.2748 34.372 56.1428 34.404 55.9988 34.404C55.8628 34.404 55.7348 34.372 55.6148 34.308C55.4948 34.244 55.4148 34.144 55.3748 34.008C55.3508 33.92 55.3268 33.796 55.3028 33.636C55.2868 33.468 55.2748 33.284 55.2668 33.084C55.2588 32.884 55.2548 32.684 55.2548 32.484C55.2548 32.276 55.2548 32.088 55.2548 31.92V30.192C55.2468 30.008 55.2428 29.808 55.2428 29.592C55.2428 29.376 55.2748 29.18 55.3388 29.004C55.3948 28.852 55.4828 28.756 55.6028 28.716C55.7228 28.668 55.8468 28.648 55.9748 28.656C56.1188 28.656 56.2308 28.696 56.3108 28.776C56.3988 28.848 56.4628 28.94 56.5028 29.052C56.5428 29.156 56.5668 29.276 56.5748 29.412C56.5828 29.54 56.5908 29.664 56.5988 29.784C56.6868 29.584 56.7908 29.42 56.9108 29.292C57.0388 29.156 57.2188 29.068 57.4508 29.028C58.0428 28.916 58.5148 29.068 58.8668 29.484C59.0268 29.324 59.2308 29.192 59.4788 29.088C59.6708 29.016 59.8668 28.984 60.0668 28.992C60.2668 28.992 60.4548 29.028 60.6308 29.1C60.8148 29.172 60.9788 29.276 61.1228 29.412C61.2748 29.548 61.3948 29.712 61.4828 29.904C61.6028 30.16 61.6708 30.444 61.6868 30.756C61.7028 31.068 61.7188 31.364 61.7348 31.644ZM64.123 29.388C64.363 29.268 64.615 29.184 64.879 29.136C65.143 29.08 65.403 29.068 65.659 29.1C65.923 29.124 66.175 29.192 66.415 29.304C66.655 29.408 66.879 29.56 67.087 29.76C67.295 29.968 67.455 30.196 67.567 30.444C67.679 30.692 67.759 30.968 67.807 31.272C67.839 31.48 67.891 31.672 67.963 31.848C68.035 32.024 68.111 32.2 68.191 32.376C68.279 32.552 68.359 32.728 68.431 32.904C68.511 33.08 68.575 33.264 68.623 33.456C68.663 33.64 68.647 33.82 68.575 33.996C68.511 34.164 68.375 34.268 68.167 34.308C68.047 34.332 67.931 34.324 67.819 34.284C67.715 34.236 67.619 34.172 67.531 34.092C67.443 34.004 67.363 33.912 67.291 33.816C67.227 33.712 67.167 33.616 67.111 33.528C66.927 33.768 66.727 33.956 66.511 34.092C66.295 34.22 66.035 34.304 65.731 34.344C65.475 34.376 65.231 34.384 64.999 34.368C64.767 34.352 64.519 34.308 64.255 34.236C63.911 34.148 63.627 33.996 63.403 33.78C63.187 33.556 63.019 33.3 62.899 33.012C62.787 32.716 62.727 32.4 62.719 32.064C62.711 31.728 62.751 31.396 62.839 31.068C62.951 30.636 63.119 30.284 63.343 30.012C63.567 29.74 63.827 29.532 64.123 29.388ZM64.423 30.792C64.311 30.904 64.223 31.036 64.159 31.188C64.095 31.34 64.055 31.5 64.039 31.668C64.031 31.836 64.047 32.004 64.087 32.172C64.127 32.34 64.191 32.488 64.279 32.616C64.359 32.728 64.495 32.824 64.687 32.904C64.879 32.976 65.079 33.02 65.287 33.036C65.527 33.052 65.735 32.988 65.911 32.844C66.095 32.7 66.231 32.52 66.319 32.304C66.415 32.08 66.459 31.844 66.451 31.596C66.443 31.34 66.375 31.108 66.247 30.9C66.151 30.748 66.023 30.636 65.863 30.564C65.711 30.492 65.547 30.456 65.371 30.456C65.195 30.448 65.019 30.476 64.843 30.54C64.675 30.596 64.535 30.68 64.423 30.792ZM73.3274 29.148C73.3914 29.3 73.3954 29.468 73.3394 29.652C73.2914 29.836 73.1994 29.956 73.0634 30.012C72.9914 30.044 72.8954 30.072 72.7754 30.096C72.6554 30.112 72.5234 30.128 72.3794 30.144C72.2434 30.16 72.1074 30.172 71.9714 30.18C71.8354 30.188 71.7194 30.192 71.6234 30.192C71.6314 30.432 71.6394 30.68 71.6474 30.936C71.6554 31.184 71.6634 31.428 71.6714 31.668C71.6794 31.908 71.6834 32.14 71.6834 32.364C71.6834 32.58 71.6794 32.776 71.6714 32.952C71.6714 33.072 71.6714 33.212 71.6714 33.372C71.6714 33.524 71.6594 33.672 71.6354 33.816C71.6194 33.96 71.5914 34.088 71.5514 34.2C71.5114 34.304 71.4514 34.372 71.3714 34.404C71.1234 34.508 70.8954 34.536 70.6874 34.488C70.4874 34.448 70.3434 34.364 70.2554 34.236C70.1914 34.132 70.1434 34.012 70.1114 33.876C70.0794 33.732 70.0554 33.588 70.0394 33.444C70.0314 33.292 70.0274 33.148 70.0274 33.012C70.0354 32.868 70.0394 32.744 70.0394 32.64C70.0474 32.304 70.0514 31.924 70.0514 31.5C70.0594 31.068 70.0634 30.636 70.0634 30.204H69.8834C69.7874 30.204 69.6634 30.204 69.5114 30.204C69.3674 30.196 69.2194 30.184 69.0674 30.168C68.9234 30.144 68.7874 30.116 68.6594 30.084C68.5314 30.044 68.4394 29.988 68.3834 29.916C68.2954 29.812 68.2394 29.7 68.2154 29.58C68.1994 29.46 68.2074 29.348 68.2394 29.244C68.2794 29.132 68.3394 29.036 68.4194 28.956C68.4994 28.868 68.5914 28.812 68.6954 28.788C68.8394 28.748 69.0434 28.728 69.3074 28.728C69.5714 28.72 69.8194 28.72 70.0514 28.728C70.0434 28.648 70.0394 28.572 70.0394 28.5C70.0394 28.42 70.0354 28.344 70.0274 28.272C70.0194 28.176 70.0154 28.056 70.0154 27.912C70.0154 27.76 70.0234 27.612 70.0394 27.468C70.0634 27.316 70.0994 27.176 70.1474 27.048C70.1954 26.912 70.2634 26.808 70.3514 26.736C70.4714 26.64 70.5914 26.588 70.7114 26.58C70.8394 26.564 70.9554 26.58 71.0594 26.628C71.1714 26.676 71.2634 26.748 71.3354 26.844C71.4154 26.932 71.4714 27.032 71.5034 27.144C71.5274 27.24 71.5474 27.356 71.5634 27.492C71.5794 27.62 71.5874 27.756 71.5874 27.9C71.5954 28.044 71.5994 28.188 71.5994 28.332C71.5994 28.476 71.5994 28.608 71.5994 28.728H71.7194C71.8394 28.728 71.9794 28.724 72.1394 28.716C72.2994 28.708 72.4554 28.712 72.6074 28.728C72.7674 28.744 72.9114 28.784 73.0394 28.848C73.1674 28.904 73.2634 29.004 73.3274 29.148ZM78.2104 29.82C78.2744 29.932 78.3064 30.052 78.3064 30.18C78.3144 30.308 78.2864 30.428 78.2224 30.54C78.1504 30.684 78.0464 30.784 77.9104 30.84C77.7824 30.888 77.6384 30.892 77.4784 30.852C77.4064 30.836 77.3424 30.808 77.2864 30.768C77.2304 30.728 77.1704 30.688 77.1064 30.648C77.0504 30.6 76.9824 30.556 76.9024 30.516C76.8304 30.476 76.7344 30.448 76.6144 30.432C76.4944 30.416 76.3624 30.416 76.2184 30.432C76.0824 30.448 75.9584 30.48 75.8464 30.528C75.6704 30.616 75.5304 30.752 75.4264 30.936C75.3224 31.112 75.2544 31.304 75.2224 31.512C75.1904 31.712 75.1944 31.916 75.2344 32.124C75.2824 32.332 75.3704 32.508 75.4984 32.652C75.5944 32.764 75.7184 32.856 75.8704 32.928C76.0304 33 76.1824 33.044 76.3264 33.06C76.4624 33.076 76.5984 33.076 76.7344 33.06C76.8704 33.036 77.0024 33.004 77.1304 32.964C77.2264 32.924 77.3344 32.872 77.4544 32.808C77.5744 32.736 77.6904 32.692 77.8024 32.676C77.9464 32.676 78.0584 32.716 78.1384 32.796C78.2184 32.868 78.2744 32.96 78.3064 33.072C78.3384 33.176 78.3424 33.288 78.3184 33.408C78.3024 33.528 78.2584 33.632 78.1864 33.72C78.0904 33.84 77.9544 33.956 77.7784 34.068C77.6024 34.172 77.4344 34.248 77.2744 34.296C77.0824 34.36 76.8664 34.396 76.6264 34.404C76.3944 34.412 76.1744 34.404 75.9664 34.38C75.8704 34.364 75.7704 34.344 75.6664 34.32C75.5624 34.296 75.4624 34.268 75.3664 34.236C75.0144 34.108 74.7184 33.928 74.4784 33.696C74.2464 33.456 74.0664 33.188 73.9384 32.892C73.8184 32.596 73.7504 32.28 73.7344 31.944C73.7184 31.608 73.7584 31.276 73.8544 30.948C73.9424 30.636 74.0504 30.372 74.1784 30.156C74.3144 29.94 74.4704 29.764 74.6464 29.628C74.8304 29.484 75.0344 29.372 75.2584 29.292C75.4824 29.204 75.7304 29.128 76.0024 29.064C76.2824 29.008 76.5784 29.008 76.8904 29.064C77.2024 29.12 77.4824 29.224 77.7304 29.376C77.9224 29.48 78.0824 29.628 78.2104 29.82ZM83.9694 32.076C83.9774 32.236 83.9814 32.404 83.9814 32.58C83.9814 32.748 83.9774 32.904 83.9694 33.048C83.9614 33.264 83.9494 33.464 83.9334 33.648C83.9174 33.824 83.8854 33.976 83.8374 34.104C83.7894 34.224 83.7134 34.316 83.6094 34.38C83.5134 34.436 83.3774 34.452 83.2014 34.428C83.0174 34.404 82.8854 34.316 82.8054 34.164C82.7254 34.012 82.6694 33.84 82.6374 33.648C82.6134 33.448 82.6054 33.248 82.6134 33.048C82.6214 32.848 82.6214 32.692 82.6134 32.58C82.6054 32.404 82.5974 32.204 82.5894 31.98C82.5894 31.748 82.5654 31.532 82.5174 31.332C82.4774 31.124 82.4054 30.948 82.3014 30.804C82.1974 30.66 82.0414 30.584 81.8334 30.576C81.5694 30.56 81.3654 30.58 81.2214 30.636C81.0854 30.692 80.9854 30.776 80.9214 30.888C80.8574 30.992 80.8174 31.12 80.8014 31.272C80.7934 31.424 80.7774 31.588 80.7534 31.764L80.7414 32.232V33.108C80.7414 33.252 80.7374 33.404 80.7294 33.564C80.7294 33.716 80.7054 33.856 80.6574 33.984C80.6094 34.112 80.5334 34.22 80.4294 34.308C80.3334 34.396 80.1894 34.44 79.9974 34.44C79.7574 34.44 79.5774 34.364 79.4574 34.212C79.3454 34.052 79.2894 33.856 79.2894 33.624V26.724C79.2894 26.676 79.2894 26.632 79.2894 26.592C79.2974 26.544 79.3054 26.496 79.3134 26.448C79.3294 26.4 79.3414 26.356 79.3494 26.316C79.3574 26.268 79.3694 26.224 79.3854 26.184C79.4094 26.104 79.4494 26.044 79.5054 26.004C79.5454 25.964 79.5854 25.932 79.6254 25.908C79.6654 25.884 79.7094 25.868 79.7574 25.86C79.7974 25.852 79.8414 25.848 79.8894 25.848C79.9374 25.84 79.9854 25.836 80.0334 25.836C80.1534 25.836 80.2694 25.872 80.3814 25.944C80.4294 25.976 80.4734 26.012 80.5134 26.052C80.5534 26.084 80.5854 26.132 80.6094 26.196C80.6734 26.348 80.7054 26.492 80.7054 26.628C80.7134 26.668 80.7174 26.728 80.7174 26.808C80.7254 26.88 80.7294 26.956 80.7294 27.036C80.7294 27.116 80.7294 27.196 80.7294 27.276C80.7374 27.348 80.7414 27.404 80.7414 27.444V27.504C80.7494 27.76 80.7534 28.02 80.7534 28.284C80.7534 28.548 80.7534 28.816 80.7534 29.088V29.292C81.0894 29.18 81.4414 29.128 81.8094 29.136C82.1774 29.136 82.5054 29.208 82.7934 29.352C83.0894 29.504 83.3134 29.676 83.4654 29.868C83.6254 30.06 83.7414 30.272 83.8134 30.504C83.8854 30.736 83.9254 30.984 83.9334 31.248C83.9494 31.512 83.9614 31.788 83.9694 32.076ZM85.2258 28.14C85.1938 27.932 85.1778 27.72 85.1778 27.504C85.1858 27.288 85.2258 27.076 85.2978 26.868C85.3858 26.596 85.5298 26.356 85.7298 26.148C85.9298 25.94 86.1578 25.776 86.4138 25.656C86.6858 25.528 86.9618 25.44 87.2418 25.392C87.5298 25.336 87.8098 25.324 88.0818 25.356C88.3618 25.388 88.6298 25.46 88.8858 25.572C89.1498 25.676 89.3978 25.828 89.6298 26.028C89.8778 26.244 90.0618 26.496 90.1818 26.784C90.3098 27.064 90.3778 27.356 90.3858 27.66C90.4018 27.964 90.3658 28.268 90.2778 28.572C90.1978 28.868 90.0738 29.144 89.9058 29.4C89.9058 29.4 89.9018 29.408 89.8938 29.424C89.7578 29.608 89.6018 29.776 89.4258 29.928C89.2498 30.072 89.0858 30.228 88.9338 30.396C88.7578 30.58 88.6538 30.768 88.6218 30.96C88.5898 31.144 88.5578 31.352 88.5258 31.584C88.5018 31.808 88.4418 32.004 88.3458 32.172C88.2578 32.332 88.0898 32.408 87.8418 32.4C87.6738 32.392 87.5458 32.34 87.4578 32.244C87.3778 32.14 87.3178 32.02 87.2778 31.884C87.2458 31.74 87.2338 31.592 87.2418 31.44C87.2498 31.28 87.2618 31.14 87.2778 31.02C87.3258 30.74 87.4138 30.476 87.5418 30.228C87.6698 29.972 87.8258 29.732 88.0098 29.508C88.1138 29.388 88.2178 29.28 88.3218 29.184C88.4258 29.08 88.5218 28.972 88.6098 28.86C88.6978 28.748 88.7738 28.628 88.8378 28.5C88.9018 28.372 88.9458 28.224 88.9698 28.056C88.9938 27.904 88.9818 27.752 88.9338 27.6C88.8858 27.44 88.8138 27.3 88.7178 27.18C88.6218 27.052 88.5058 26.948 88.3698 26.868C88.2338 26.78 88.0858 26.732 87.9258 26.724C87.7818 26.716 87.6298 26.736 87.4698 26.784C87.3098 26.824 87.1618 26.892 87.0258 26.988C86.8898 27.076 86.7778 27.184 86.6898 27.312C86.6098 27.44 86.5738 27.584 86.5818 27.744C86.5898 27.84 86.6058 27.94 86.6298 28.044C86.6618 28.14 86.6818 28.236 86.6898 28.332C86.7058 28.42 86.7018 28.508 86.6778 28.596C86.6618 28.684 86.6098 28.768 86.5218 28.848C86.3778 28.984 86.2338 29.052 86.0898 29.052C85.9458 29.044 85.8138 28.996 85.6938 28.908C85.5738 28.82 85.4698 28.708 85.3818 28.572C85.3018 28.428 85.2498 28.284 85.2258 28.14ZM88.6818 34.128C88.6818 34.36 88.5938 34.568 88.4178 34.752C88.2498 34.928 88.0538 35.016 87.8298 35.016C87.6138 35.016 87.4218 34.928 87.2538 34.752C87.0858 34.56 87.0018 34.352 87.0018 34.128C87.0018 33.88 87.0858 33.672 87.2538 33.504C87.4218 33.32 87.6138 33.228 87.8298 33.228C88.0538 33.228 88.2498 33.32 88.4178 33.504C88.5938 33.68 88.6818 33.888 88.6818 34.128Z" fill="url(#paint0_linear_5_2)"/>
<defs>
<linearGradient id="paint0_linear_5_2" x1="45.3816" y1="-2.56" x2="45.3816" y2="39.44" gradientUnits="userSpaceOnUse">
<stop stop-color="#8B96FE"/>
<stop offset="1" stop-color="#86CDDB"/>
</linearGradient>
</defs>
</svg>
